<svg data-v-0dd9719b="" version="1.0" xmlns="http://www.w3.org/2000/svg" xmlns:xlink="http://www.w3.org/1999/xlink" width="100%" height="100%" viewBox="0 0 340.000000 250.000000" preserveAspectRatio="xMidYMid meet" color-interpolation-filters="sRGB" style="margin: auto;"> <rect data-v-0dd9719b="" x="0" y="0" width="100%" height="100%" fill="#fff" fill-opacity="1" class="background"></rect> <rect data-v-0dd9719b="" x="0" y="0" width="100%" height="100%" fill="url(#watermark)" fill-opacity="1" class="watermarklayer"></rect> <g data-v-0dd9719b="" fill="#006b38" class="icon-text-wrapper icon-svg-group iconsvg" transform="translate(79.16000366210938,81.16069412231445)"><g class="iconsvg-imagesvg" transform="translate(60.83999443054199,0)"><g><rect fill="#006b38" fill-opacity="0" stroke-width="2" x="0" y="0" width="60" height="59.988602165588546" class="image-rect"></rect> <svg x="0" y="0" width="60" height="59.988602165588546" filtersec="colorsb8081475143" class="image-svg-svg primary" style="overflow: visible;"><svg xmlns="http://www.w3.org/2000/svg" viewBox="-0.02500060200691223 -0.002287373412400484 129.4399871826172 129.4152069091797"><g><g><path d="M110.46 18.93a64.72 64.72 0 1 1-91.53 0 64.78 64.78 0 0 1 91.53 0zm-86.29 5.24a57.31 57.31 0 1 0 81 0 57.33 57.33 0 0 0-81 0z" fill="#006b38"></path><path d="M48.74 97.22c2.88 10.79-13.65 15.21-16.54 4.42L17.4 46.4c-2.12-7.94 7.18-13.77 13.44-9l33.87 24 34.13-24.21c7.69-5.41 15.71 2 12.87 10.38l-14.48 54.07c-2.88 10.79-19.42 6.36-16.53-4.42l8.67-32.37-19.56 13.83a8.56 8.56 0 0 1-10 .12l-19.73-14 8.67 32.37z" fill="#333333"></path></g></g></svg></svg> <!----></g></g> <g transform="translate(0,66.98860549926758)"><g data-gra="path-name" fill-rule="" class="tp-name iconsvg-namesvg"><g transform="scale(1)"><g><path d="M27.58-20.13L23.26 0 16.23 0 19.14-13.69 11.63 0 7.32 0 5.9-14.17 2.85 0 0 0 4.28-20.13 12.36-20.13 13.34-8.78 19.43-20.13 27.58-20.13ZM37.91-20.13L33.6 0 26.75 0 31.03-20.13 37.91-20.13ZM47.86-7.07L48.34-9.19 56.55-9.19 54.71 0 50.97 0 50.36-2.03 50.24-2.03Q49.41-1.08 48.29-0.41 47.16 0.25 45.36 0.25L45.36 0.25Q43.96 0.25 42.68-0.21 41.39-0.67 40.4-1.66 39.4-2.66 38.8-4.28 38.19-5.9 38.19-8.18L38.19-8.18Q38.19-10.65 38.95-12.87 39.71-15.09 41.24-16.78 42.76-18.48 45.04-19.46 47.32-20.44 50.36-20.44L50.36-20.44Q52.71-20.44 54.45-19.9 56.2-19.37 57.75-18.7L57.75-18.7 56.55-12.55 51.19-12.55Q51.22-12.9 51.28-13.38 51.35-13.85 51.38-14.37 51.41-14.9 51.44-15.4 51.47-15.91 51.47-16.29L51.47-16.29Q51.47-16.55 51.44-16.88 51.41-17.21 51.28-17.53 51.16-17.84 50.9-18.05 50.65-18.26 50.17-18.26L50.17-18.26Q49.35-18.26 48.67-17.58 47.99-16.89 47.45-15.77 46.91-14.64 46.51-13.22 46.12-11.79 45.85-10.32 45.58-8.84 45.44-7.43 45.29-6.02 45.29-4.98L45.29-4.98Q45.29-4.66 45.32-4.18 45.36-3.71 45.53-3.25 45.71-2.79 46.04-2.46 46.37-2.12 47-2.12L47-2.12Q48.05-2.12 49.03-3.26 50.02-4.41 50.52-7.07L50.52-7.07 47.86-7.07ZM79.37-20.13L75.02 0 68.18 0 70.08-8.97 66.18-8.97 64.28 0 57.43 0 61.71-20.13 68.59-20.13 66.72-11.38 70.59-11.38 72.46-20.13 79.37-20.13ZM98.38-20.13L97.84-17.72 92.74-17.72 88.97 0 82.12 0 85.9-17.72 80.86-17.72 81.43-20.13 98.38-20.13ZM116.55-20.13L108.46-7.61 106.85 0 99.97 0 101.71-8.15 98.61-20.13 106.21-20.13 108.37-12.17 113.12-20.13 116.55-20.13ZM136.13-20.13L131.79 0 124.94 0 126.85-8.97 122.95-8.97 121.05 0 114.2 0 118.48-20.13 125.36-20.13 123.49-11.38 127.35-11.38 129.22-20.13 136.13-20.13ZM146.47-20.13L142.16 0 135.31 0 139.59-20.13 146.47-20.13ZM149.41 0L148.24-20.13 155.47-20.13 156.55-6.5 163.14-20.13 166.28-20.13 156.89 0 149.41 0ZM164.06 0L168.34-20.13 181.68-20.13 181.17-17.72 174.71-17.72 173.38-11.6 178.8-11.6 178.29-9.22 172.87-9.22 171.41-2.44 177.88-2.44 177.4 0 164.06 0Z" transform="translate(0, 20.440000534057617)"></path></g> <!----> <!----> <!----> <!----> <!----> <!----> <!----></g></g> <!----></g></g><defs v-gra="od"></defs></svg>